<svg width="40" height="40" viewBox="0 0 40 40" fill="none" xmlns="http://www.w3.org/2000/svg">
<path fill-rule="evenodd" clip-rule="evenodd" d="M20 40C31.0457 40 40 31.0457 40 20C40 8.9543 31.0457 0 20 0C8.9543 0 0 8.9543 0 20C0 31.0457 8.9543 40 20 40ZM26 26.6665V13.3333C26 12.9797 25.8659 12.6406 25.6272 12.3905C25.3885 12.1405 25.0648 12 24.7273 12H23.2727C22.9352 12 22.6115 12.1405 22.3728 12.3905C22.1341 12.6406 22 12.9797 22 13.3333V26.6665C22 27.0201 22.1341 27.3593 22.3728 27.6093C22.6115 27.8594 22.9352 27.9998 23.2727 27.9998H24.7273C25.0648 27.9998 25.3885 27.8594 25.6272 27.6093C25.8659 27.3593 26 27.0201 26 26.6665ZM15.2727 12.0002H16.7269C17.0645 12.0002 17.3882 12.1406 17.6269 12.3907C17.8656 12.6407 17.9997 12.9799 17.9997 13.3335V26.6667C17.9997 27.0203 17.8656 27.3594 17.6269 27.6095C17.3882 27.8595 17.0645 28 16.7269 28H15.2727C14.9352 28 14.6115 27.8595 14.3728 27.6095C14.1341 27.3594 14 27.0203 14 26.6667V13.3335C14 12.9799 14.1341 12.6407 14.3728 12.3907C14.6115 12.1406 14.9352 12.0002 15.2727 12.0002Z" fill="#161B16"/>
</svg>
