<svg width="40" height="40" viewBox="0 0 40 40" fill="none" xmlns="http://www.w3.org/2000/svg">
<path fill-rule="evenodd" clip-rule="evenodd" d="M20 40C31.0457 40 40 31.0457 40 20C40 8.9543 31.0457 0 20 0C8.9543 0 0 8.9543 0 20C0 31.0457 8.9543 40 20 40ZM26.7329 20.5452C26.8265 20.3787 26.8755 20.1909 26.875 19.9999C26.8755 19.8089 26.8265 19.621 26.7329 19.4546C26.6392 19.2881 26.5041 19.1487 26.3406 19.0499L16.21 12.8526C16.0392 12.748 15.8436 12.6909 15.6433 12.6872C15.4431 12.6835 15.2455 12.7333 15.0709 12.8315C14.898 12.9282 14.754 13.0691 14.6537 13.2399C14.5533 13.4107 14.5003 13.6051 14.5 13.8032V26.1965C14.5003 26.3946 14.5533 26.589 14.6537 26.7598C14.754 26.9306 14.898 27.0716 15.0709 27.1682C15.2455 27.2664 15.4431 27.3162 15.6433 27.3125C15.8436 27.3088 16.0392 27.2517 16.21 27.1471L26.3406 20.9498C26.5041 20.851 26.6392 20.7116 26.7329 20.5452Z" fill="#161B16"/>
</svg>
