<svg width="103" height="40" viewBox="0 0 103 40" fill="none" xmlns="http://www.w3.org/2000/svg">
<path d="M97.4119 10.4364C98.5428 10.4364 99.6123 11.0633 100.62 12.3171C101.653 13.5709 102.169 14.7633 102.169 15.8942C102.169 17.0251 101.911 18.3527 101.395 19.877C100.878 21.4012 100.19 22.8763 99.3296 24.3023C98.4691 25.7282 97.3874 26.9328 96.0844 27.9162C94.7814 28.8996 93.4169 29.3913 91.991 29.3913C90.5896 29.3913 88.9916 28.7153 87.1969 27.3631C86.7052 28.7398 86.2996 29.4282 85.9799 29.4282C85.4637 29.4282 84.8122 28.998 84.0254 28.1375C83.2387 27.277 82.8454 26.5764 82.8454 26.0355C82.8454 25.4946 83.251 23.7245 84.0623 20.7252C86.4962 11.7271 87.7132 5.21206 87.7132 1.18013C87.7132 0.442586 88.0697 0.0738122 88.7826 0.0738122C89.3481 0.0738122 90.1102 0.614679 91.069 1.69642C92.0278 2.75357 92.5072 3.74926 92.5072 4.68349C92.5072 6.87154 91.8803 10.2766 90.6265 14.8985C93.4292 11.9237 95.691 10.4364 97.4119 10.4364ZM91.4378 25.1504C92.79 25.1504 94.1667 24.0933 95.5681 21.979C96.994 19.8647 97.707 17.7873 97.707 15.7467C97.707 15.5992 97.6701 15.5131 97.5963 15.4886C97.5472 15.4394 97.3874 15.4148 97.1169 15.4148C95.7648 15.4148 94.3142 16.2261 92.7654 17.8487C91.2411 19.4713 89.889 21.4996 88.7089 23.9335C89.7414 24.7448 90.6511 25.1504 91.4378 25.1504Z" fill="#1B1B1B"/>
<path d="M81.739 18.955C82.1816 19.3484 82.4028 19.7049 82.4028 20.0245C82.4028 20.3441 82.2553 21.0079 81.9603 22.0159C81.6653 23.0238 81.4686 23.8106 81.3703 24.376C81.2719 24.9169 81.1859 25.3471 81.1121 25.6667C81.063 25.9863 81.0261 26.2445 81.0015 26.4411C80.9769 26.6132 80.9277 26.8345 80.854 27.1049C80.8048 27.3754 80.7556 27.5966 80.7065 27.7687C80.6819 27.9162 80.6327 28.1006 80.559 28.3219C80.5098 28.5186 80.4483 28.6784 80.3746 28.8013C80.3008 28.8996 80.2148 29.0103 80.1164 29.1332C79.9689 29.3299 79.7231 29.4282 79.3789 29.4282C79.0347 29.4282 78.6045 29.084 78.0882 28.3956C77.5965 27.7073 77.2277 26.8714 76.9819 25.888C74.6709 28.2481 72.7287 29.4282 71.1552 29.4282C70.0981 29.4282 68.9549 28.8505 67.7256 27.695C66.4964 26.5149 65.8818 25.3471 65.8818 24.1916C65.8818 23.0116 66.4103 21.3398 67.4675 19.1763C68.5246 17.0128 69.9629 15.0092 71.7821 13.1653C73.626 11.3214 75.4453 10.3995 77.24 10.3995C78.2726 10.3995 79.4649 11.0018 80.8171 12.2065C82.1693 13.4111 82.8454 14.5175 82.8454 15.5254C82.8454 16.5088 82.4766 17.652 81.739 18.955ZM71.0077 24.7817C71.9911 24.7817 73.2941 24.1179 74.9167 22.7903C76.5639 21.4381 77.5842 19.7418 77.9775 17.7012C78.0021 17.4062 78.2111 17.2341 78.6045 17.1849C78.5307 15.7836 78.2971 15.0829 77.9038 15.0829C76.9204 15.0829 75.8141 15.7221 74.5848 17.0005C73.3802 18.279 72.3845 19.6434 71.5978 21.0939C70.8356 22.5444 70.4546 23.6139 70.4546 24.3023C70.4546 24.4989 70.4791 24.6342 70.5283 24.7079C70.6021 24.7571 70.7619 24.7817 71.0077 24.7817Z" fill="#1B1B1B"/>
<path d="M63.5158 0C64.1059 0 64.868 0.540867 65.8022 1.6226C66.7365 2.70434 67.2036 3.73691 67.2036 4.72031C67.2036 5.7037 67.0561 7.46153 66.761 9.99377C66.466 12.5014 66.1587 14.5051 65.8391 16.0048C63.7986 24.9045 62.3726 29.3544 61.5613 29.3544C61.0205 29.3544 60.3444 28.9242 59.5331 28.0637C58.7464 27.1786 58.353 26.4534 58.353 25.8879C58.353 25.8388 58.6849 24.5603 59.3487 22.0527C60.0125 19.545 60.6763 16.3244 61.3401 12.3908C62.0284 8.43263 62.3726 4.65884 62.3726 1.06944C62.3726 0.356481 62.7537 0 63.5158 0Z" fill="#1B1B1B"/>
<path d="M54.7021 11.3214C54.8497 10.7068 55.2553 10.3995 55.9191 10.3995C56.5829 10.3995 57.259 10.8174 57.9474 11.6533C58.6603 12.4892 59.0168 13.4357 59.0168 14.4929C59.0168 15.1075 58.7955 16.0786 58.353 17.4062C57.9105 18.7338 57.5909 19.6803 57.3942 20.2457C57.2221 20.8112 56.964 21.5856 56.6198 22.569C56.2756 23.5278 55.956 24.4252 55.661 25.2611C55.3905 26.0724 55.0095 27.1664 54.5178 28.5432C54.0506 29.9199 53.6204 31.1983 53.227 32.3784C52.4649 34.5911 51.5307 36.2997 50.4244 37.5044C49.3426 38.709 47.929 39.3114 46.1835 39.3114C44.4379 39.3114 42.8768 38.8442 41.5 37.91C40.1233 37.0004 39.4349 36.0784 39.4349 35.1442C39.4349 34.5788 39.6808 33.9518 40.1725 33.2635C40.6887 32.5751 41.119 32.2309 41.4632 32.2309C41.8319 32.2309 42.2991 32.5136 42.8645 33.0791C43.4545 33.6691 44.0569 34.2469 44.6715 34.8123C45.2861 35.4024 45.827 35.6974 46.2941 35.6974C46.6137 35.6974 46.8718 35.5499 47.0685 35.2548C47.2898 34.9598 47.4619 34.6894 47.5848 34.4435C47.7323 34.2223 47.8798 33.9027 48.0273 33.4847C48.1748 33.0914 48.3101 32.7226 48.433 32.3784C48.5559 32.0342 48.7034 31.5794 48.8755 31.0139C49.0476 30.4485 49.1951 29.9445 49.318 29.502C49.736 28.1744 50.0925 26.9943 50.3875 25.9617C49.5762 27.0189 48.7403 27.8671 47.8798 28.5063C47.0194 29.1209 46.2203 29.4282 45.4828 29.4282C44.7698 29.4282 43.8725 28.8873 42.7907 27.8056C41.7336 26.6993 41.205 25.4946 41.205 24.1916C41.205 22.864 41.4877 21.0939 42.0532 18.8813C42.6432 16.6686 43.3685 14.7018 44.229 12.9809C45.0894 11.26 45.8516 10.3995 46.5154 10.3995C47.2775 10.3995 47.9905 10.7314 48.6543 11.3952C49.3426 12.0344 49.6868 12.6613 49.6868 13.2759C49.6868 13.866 49.3795 14.8248 48.7649 16.1524C48.1748 17.4799 47.5725 18.9305 46.9579 20.5039C46.3433 22.0773 46.036 23.4172 46.036 24.5235C46.036 24.671 46.0974 24.7448 46.2203 24.7448C46.5399 24.7448 47.216 24.1548 48.2486 22.9747C49.2812 21.77 50.4367 20.0737 51.7151 17.8856C53.0181 15.6729 54.0138 13.4849 54.7021 11.3214Z" fill="#1B1B1B"/>
<path d="M35.8771 10.3995C37.1555 10.3995 38.2741 10.9772 39.2329 12.1327C40.2163 13.2636 40.708 14.4806 40.708 15.7836C40.708 17.8733 40.3639 20.0614 39.6755 22.3478C39.0117 24.6096 38.2741 26.3551 37.4628 27.5843C36.6761 28.8136 35.8648 29.4282 35.0289 29.4282C34.2176 29.4282 33.812 28.8505 33.812 27.695C33.812 26.8099 34.2176 25.0275 35.0289 22.3478C35.6435 20.1351 35.9509 18.5494 35.9509 17.5906C35.9509 16.6318 35.8279 16.1524 35.5821 16.1524C35.2625 16.1524 34.9429 16.3122 34.6233 16.6318C34.3282 16.9514 34.0824 17.2341 33.8857 17.4799C33.689 17.7258 33.4555 18.0454 33.1851 18.4388C32.9392 18.8075 32.7179 19.1517 32.5213 19.4713C32.3492 19.7663 32.1156 20.1597 31.8206 20.6514C31.5502 21.1185 31.3289 21.5119 31.1568 21.8315C30.9847 22.1265 30.7634 22.5198 30.493 23.0115C28.2066 27.2893 26.4119 29.4282 25.1089 29.4282C24.5926 29.4282 23.9411 28.9857 23.1544 28.1006C22.3677 27.191 21.9743 26.5272 21.9743 26.1093C21.9743 25.8388 22.1464 25.2611 22.4906 24.376C22.8594 23.4664 23.1175 22.778 23.265 22.3109C23.4371 21.8192 23.5723 21.3029 23.6707 20.762C23.7936 20.2212 23.8919 19.6434 23.9657 19.0288C24.0395 18.3896 24.0886 17.8979 24.1132 17.5537C24.1624 17.2095 24.2116 16.6686 24.2607 15.9311C24.482 12.7351 24.6664 10.9649 24.8139 10.6207C24.986 10.2766 25.1704 10.1045 25.367 10.1045C26.3013 10.1045 27.1986 10.4978 28.0591 11.2845C28.9196 12.0467 29.3498 12.7473 29.3498 13.3866C29.3498 14.9108 28.9564 17.0989 28.1697 19.9507C29.7677 17.148 31.2183 14.8616 32.5213 13.0915C33.8488 11.2968 34.9675 10.3995 35.8771 10.3995Z" fill="#1B1B1B"/>
<path d="M18.1022 6.34297C18.1022 5.70376 18.3849 5.05226 18.9504 4.38847C19.5404 3.70009 20.1059 3.3559 20.6467 3.3559C21.2122 3.3559 21.876 4.01969 22.6381 5.34728C23.4002 6.67486 23.7813 7.64597 23.7813 8.26059C23.7813 8.85063 23.5846 9.30545 23.1913 9.62506C22.7979 9.94466 22.3923 10.1045 21.9743 10.1045C21.2614 10.1045 20.4378 9.63735 19.5035 8.70312C18.5693 7.76889 18.1022 6.98218 18.1022 6.34297ZM18.6554 10.9526C19.5158 10.9526 20.278 11.4443 20.9418 12.4277C21.6301 13.4111 21.9743 14.3577 21.9743 15.2673C21.9743 15.7344 21.5441 17.4185 20.6836 20.3195C19.8477 23.1959 19.0118 25.9249 18.176 28.5063C17.8809 29.4651 17.2786 29.9445 16.369 29.9445C15.8281 29.9445 15.3487 29.7478 14.9307 29.3545C14.5374 28.9365 14.3407 28.4079 14.3407 27.7687C14.3407 27.1049 14.648 25.4823 15.2626 22.9009C15.9018 20.2949 16.3813 18.0823 16.7009 16.263C17.045 14.4191 17.3524 13.0792 17.6228 12.2434C17.9178 11.3829 18.262 10.9526 18.6554 10.9526Z" fill="#1B1B1B"/>
<path d="M12.7227 11.5427C13.3619 11.5427 13.9765 11.7762 14.5666 12.2434C15.1812 12.6859 15.4885 13.153 15.4885 13.6447C15.4885 14.5298 14.751 16.5826 13.2759 19.8032C11.8254 23.0238 10.4732 25.6176 9.21935 27.5844C7.9901 29.5511 7.03129 30.5345 6.34291 30.5345C5.97414 30.5345 5.43327 30.2887 4.72031 29.797C4.03193 29.3053 3.5894 28.8136 3.39272 28.3219C2.80268 26.896 2.08972 24.2654 1.25383 20.4301C0.417944 16.5703 0 14.1241 0 13.0915C0 12.059 0.344189 11.5427 1.03257 11.5427C1.86845 11.5427 2.72893 11.8746 3.61398 12.5384C5.08908 13.6693 5.91268 15.1813 6.08477 17.0743C6.15852 17.9594 6.21999 19.0534 6.26916 20.3564C6.31833 21.6348 6.42896 22.7411 6.60105 23.6753C7.19109 22.5444 7.91635 20.8727 8.77682 18.66C9.63729 16.4228 10.3748 14.6773 10.9895 13.4234C11.6287 12.1696 12.2064 11.5427 12.7227 11.5427Z" fill="#1B1B1B"/>
<path d="M99.2056 31.5959C99.2675 32.116 99.2073 32.8826 97.7081 33.896C96.209 34.9093 94.7334 35.5023 93.2815 35.675C91.8296 35.8476 88.5603 36.0262 84.7908 36.2108C81.0575 36.391 78.067 36.472 75.8194 36.4536C62.4658 36.2176 56.405 35.7421 56.3199 35.027C56.2632 34.5503 56.1691 33.8789 57.3545 33.0128C58.5787 32.164 59.6083 31.69 60.4431 31.5907C60.5157 31.582 62.438 31.6501 66.2099 31.7949C69.9818 31.9397 74.8064 31.9593 80.6836 31.8537C86.5996 31.7655 92.2074 31.4063 97.5068 30.7761C98.5595 30.6509 99.1257 30.9242 99.2056 31.5959Z" fill="#1B1B1B"/>
</svg>
